<?xml version="1.0" standalone="no"?><svg xmlns="http://www.w3.org/2000/svg" viewBox="0 0 1440 320"><path fill="#e7008a" fill-opacity="0.65" d="M0,32L34.3,53.3C68.6,75,137,117,206,112C274.3,107,343,53,411,69.3C480,85,549,171,617,202.7C685.7,235,754,213,823,218.7C891.4,224,960,256,1029,229.3C1097.1,203,1166,117,1234,90.7C1302.9,64,1371,96,1406,112L1440,128L1440,320L1405.7,320C1371.4,320,1303,320,1234,320C1165.7,320,1097,320,1029,320C960,320,891,320,823,320C754.3,320,686,320,617,320C548.6,320,480,320,411,320C342.9,320,274,320,206,320C137.1,320,69,320,34,320L0,320Z"></path></svg>